<svg width="14" height="14" viewBox="0 0 14 14" fill="none" xmlns="http://www.w3.org/2000/svg">
<path fill-rule="evenodd" clip-rule="evenodd" d="M14.0003 11.0519C14.0052 10.9809 13.995 10.9097 13.9703 10.8429C13.7696 10.6032 13.5086 10.4213 13.2143 10.3159C12.6503 9.99995 12.0733 9.68995 11.5153 9.36295C11.2621 9.13993 10.9577 8.98294 10.6293 8.90595C10.0223 8.90595 9.13626 10.7059 8.59826 10.7059C8.28768 10.6417 7.99528 10.5092 7.74226 10.3179C6.01294 9.39593 4.5964 7.98112 3.67226 6.25295C3.48096 6.00096 3.34809 5.7096 3.28326 5.39995C3.28326 4.86395 5.08326 3.97895 5.08326 3.37295C5.0059 3.04469 4.84856 2.74067 4.62526 2.48795C4.30026 1.93195 3.99026 1.35495 3.67226 0.788946C3.56663 0.494749 3.38435 0.234101 3.14426 0.033946C3.07782 0.00782169 3.00655 -0.00377159 2.93526 -5.40401e-05C2.46015 0.0288667 1.99282 0.134219 1.55126 0.311946C1.08282 0.596115 0.715246 1.01999 0.500258 1.52395C0.174307 2.08595 -0.00166066 2.72232 -0.0107422 3.37195C0.0628097 4.2724 0.295408 5.15269 0.676258 5.97195C0.889801 6.5796 1.16595 7.16341 1.50026 7.71395C2.75347 9.61083 4.37902 11.2333 6.27826 12.4829C6.82872 12.8176 7.41254 13.0941 8.02026 13.3079C8.84228 13.6888 9.72524 13.921 10.6283 13.9939C11.2784 13.9859 11.9157 13.8113 12.4793 13.4869C12.9841 13.272 13.4087 12.9041 13.6933 12.4349C13.8693 11.9935 13.973 11.5265 14.0003 11.0519Z" fill="white"/>
</svg>
