<svg width="20" height="20" viewBox="0 0 20 20" fill="none" xmlns="http://www.w3.org/2000/svg">
<path d="M10.159 4.92769C7.36253 4.92769 5.13412 7.12144 5.13412 9.77925C5.13412 12.4792 7.36253 14.6308 10.159 14.6308C12.9117 14.6308 15.1838 12.4792 15.1838 9.77925C15.1838 7.12144 12.9117 4.92769 10.159 4.92769ZM10.159 12.9433C8.36749 12.9433 6.88189 11.5511 6.88189 9.77925C6.88189 8.04956 8.3238 6.65737 10.159 6.65737C11.9504 6.65737 13.3923 8.04956 13.3923 9.77925C13.3923 11.5511 11.9504 12.9433 10.159 12.9433ZM16.5383 4.75894C16.5383 4.12612 16.014 3.61987 15.3586 3.61987C14.7032 3.61987 14.1788 4.12612 14.1788 4.75894C14.1788 5.39175 14.7032 5.898 15.3586 5.898C16.014 5.898 16.5383 5.39175 16.5383 4.75894ZM19.8591 5.898C19.7717 4.37925 19.4221 3.02925 18.2861 1.93237C17.15 0.835498 15.7518 0.497998 14.1788 0.413623C12.5621 0.329248 7.71208 0.329248 6.0954 0.413623C4.52241 0.497998 3.16789 0.835498 1.98814 1.93237C0.852093 3.02925 0.502539 4.37925 0.415151 5.898C0.327762 7.45894 0.327762 12.1417 0.415151 13.7027C0.502539 15.2214 0.852093 16.5292 1.98814 17.6683C3.16789 18.7652 4.52241 19.1027 6.0954 19.1871C7.71208 19.2714 12.5621 19.2714 14.1788 19.1871C15.7518 19.1027 17.15 18.7652 18.2861 17.6683C19.4221 16.5292 19.7717 15.2214 19.8591 13.7027C19.9465 12.1417 19.9465 7.45894 19.8591 5.898ZM17.7617 15.348C17.4559 16.1917 16.7568 16.8246 15.9266 17.1621C14.6158 17.6683 11.5572 17.5417 10.159 17.5417C8.71705 17.5417 5.65845 17.6683 4.39132 17.1621C3.51744 16.8246 2.86203 16.1917 2.51247 15.348C1.98814 14.1246 2.11922 11.1714 2.11922 9.77925C2.11922 8.42925 1.98814 5.47612 2.51247 4.2105C2.86203 3.40894 3.51744 2.77612 4.39132 2.43862C5.65845 1.93237 8.71705 2.05894 10.159 2.05894C11.5572 2.05894 14.6158 1.93237 15.9266 2.43862C16.7568 2.73394 17.4122 3.40894 17.7617 4.2105C18.2861 5.47612 18.155 8.42925 18.155 9.77925C18.155 11.1714 18.2861 14.1246 17.7617 15.348Z" fill="white"/>
</svg>
