<svg width="12" height="18" viewBox="0 0 12 18" fill="none" xmlns="http://www.w3.org/2000/svg">
<path d="M10.3674 11.7797C11.4897 11.0611 12.0158 10.6504 11.5599 9.76065C11.3144 9.28154 10.5778 8.87088 9.66595 9.58954C9.66595 9.58954 8.36826 10.582 6.33405 10.582C4.26477 10.582 3.00215 9.58954 3.00215 9.58954C2.05519 8.83666 1.35374 9.28154 1.07316 9.76065C0.652289 10.6504 1.14331 11.0611 2.26563 11.7797C3.24766 12.3957 4.58042 12.6353 5.45724 12.7037L4.72071 13.4224C3.70361 14.4148 2.75665 15.3731 2.05519 16.0233C1.07316 16.9815 2.65143 18.5215 3.66853 17.5975L6.33405 14.9624C7.35116 15.989 8.33319 16.9473 8.99957 17.5975C9.9816 18.5557 11.5949 17.0157 10.6129 16.0233L7.21087 12.7037C8.08768 12.6353 9.38537 12.3957 10.3674 11.7797ZM1.77461 4.79846C1.77461 7.26245 3.80882 9.24732 6.33405 9.24732C8.82421 9.24732 10.8584 7.26245 10.8584 4.79846C10.8584 2.33448 8.82421 0.349609 6.33405 0.349609C3.80882 0.349609 1.77461 2.33448 1.77461 4.79846ZM4.08941 4.79846C4.08941 3.6007 5.07144 2.60826 6.33405 2.60826C7.56159 2.60826 8.54363 3.6007 8.54363 4.79846C8.54363 5.99623 7.56159 6.98867 6.33405 6.98867C5.07144 6.98867 4.08941 5.99623 4.08941 4.79846Z" fill="white"/>
</svg>
