<svg width="23" height="18" viewBox="0 0 23 18" fill="none" xmlns="http://www.w3.org/2000/svg">
<path d="M20.6577 4.70539C21.5295 4.07105 22.3141 3.30985 22.9244 2.42178C22.1398 2.76009 21.2244 3.01383 20.309 3.0984C21.268 2.54865 21.9654 1.70286 22.3141 0.645633C21.4423 1.1531 20.4397 1.53371 19.4371 1.74515C18.5653 0.857079 17.3884 0.349609 16.0806 0.349609C13.5524 0.349609 11.5036 2.3372 11.5036 4.78997C11.5036 5.12828 11.5472 5.4666 11.6343 5.80491C7.84193 5.59346 4.44183 3.81732 2.1751 1.1531C1.78278 1.78744 1.56483 2.54865 1.56483 3.39443C1.56483 4.91684 2.34946 6.27009 3.6136 7.07359C2.87256 7.0313 2.13151 6.86214 1.52123 6.52383V6.56611C1.52123 8.72286 3.09051 10.499 5.18288 10.9219C4.83415 11.0065 4.39824 11.0911 4.00592 11.0911C3.70078 11.0911 3.43924 11.0488 3.1341 11.0065C3.70078 12.7826 5.40083 14.0513 7.40602 14.0936C5.83674 15.2777 3.87515 15.9966 1.73919 15.9966C1.34687 15.9966 0.998142 15.9543 0.649414 15.912C2.6546 17.1807 5.0521 17.8996 7.66757 17.8996C16.0806 17.8996 20.6577 11.1756 20.6577 5.29744C20.6577 5.08599 20.6577 4.91684 20.6577 4.70539Z" fill="white"/>
</svg>
