<svg width="24" height="14" viewBox="0 0 24 14" fill="none" xmlns="http://www.w3.org/2000/svg">
<path d="M23.0109 0.978906C23.1387 0.472656 23.0109 0.0507812 22.2437 0.0507812H19.7291C19.0898 0.0507812 18.7914 0.388281 18.6209 0.767969C18.6209 0.767969 17.3423 3.84766 15.5523 5.87266C14.9556 6.42109 14.6998 6.63203 14.3589 6.63203C14.231 6.63203 13.9753 6.42109 13.9753 5.91484V0.978906C13.9753 0.346094 13.8048 0.0507812 13.2507 0.0507812H9.32965C8.90344 0.0507812 8.69034 0.346094 8.69034 0.641406C8.69034 1.23203 9.58537 1.35859 9.67061 3.04609V6.71641C9.67061 7.51797 9.54275 7.68672 9.20179 7.68672C8.34937 7.68672 6.30359 4.56484 5.06759 1.02109C4.81186 0.346094 4.55614 0.0507812 3.91683 0.0507812H1.40222C0.720287 0.0507812 0.549805 0.388281 0.549805 0.767969C0.549805 1.44297 1.40222 4.69141 4.51352 9.03672C6.60193 11.9898 9.54275 13.5508 12.1852 13.5508C13.7622 13.5508 13.9753 13.2133 13.9753 12.6227C13.9753 9.79609 13.8474 9.50078 14.6146 9.50078C14.9982 9.50078 15.6375 9.71172 17.1292 11.1461C18.834 12.8336 19.1324 13.5508 20.07 13.5508H22.5847C23.3092 13.5508 23.6502 13.2133 23.4371 12.4961C22.9682 11.0617 19.7717 8.02422 19.6012 7.81328C19.2176 7.34922 19.3455 7.13828 19.6012 6.71641C19.6012 6.71641 22.6699 2.41328 23.0109 0.978906Z" fill="white"/>
</svg>
