<svg width="20" height="20" viewBox="0 0 20 20" fill="none" xmlns="http://www.w3.org/2000/svg">
<path d="M16.9026 2.88382C15.1112 1.04866 12.6643 0 10.0426 0C4.71194 0 0.342522 4.36942 0.342522 9.70011C0.342522 11.4479 0.823159 13.1083 1.65335 14.5502L0.298828 19.575L5.41105 18.2642C6.85296 19.007 8.42595 19.4439 10.0426 19.4439C15.417 19.4439 19.8738 15.0745 19.8738 9.74381C19.8738 7.12215 18.7378 4.71897 16.9026 2.88382ZM10.0426 17.7835C8.60073 17.7835 7.20251 17.3903 5.93538 16.6475L5.67321 16.4727L2.61462 17.3029L3.44481 14.3317L3.22634 14.0258C2.43984 12.715 2.0029 11.2294 2.0029 9.70011C2.0029 5.287 5.62952 1.66038 10.0863 1.66038C12.2273 1.66038 14.2373 2.49057 15.7666 4.01987C17.2959 5.54916 18.2134 7.5591 18.2134 9.74381C18.2134 14.1569 14.4994 17.7835 10.0426 17.7835ZM14.4994 11.7537C14.2373 11.6227 13.0575 11.0546 12.8391 10.9672C12.6206 10.8799 12.4458 10.8362 12.271 11.0983C12.14 11.3168 11.6593 11.8848 11.5282 12.0596C11.3535 12.1907 11.2224 12.2344 11.0039 12.1033C9.562 11.4042 8.64442 10.8362 7.68315 9.21948C7.42098 8.78253 7.94531 8.82623 8.38225 7.90865C8.46964 7.73387 8.42595 7.60279 8.38225 7.47171C8.33856 7.34063 7.81423 6.16088 7.63945 5.68025C7.42098 5.19961 7.24621 5.2433 7.07143 5.2433C6.94035 5.2433 6.76557 5.2433 6.63449 5.2433C6.45971 5.2433 6.19755 5.287 5.97907 5.54916C5.7606 5.81133 5.14888 6.37935 5.14888 7.5591C5.14888 8.78253 5.97907 9.91858 6.11016 10.0934C6.24124 10.2244 7.81423 12.6713 10.2611 13.72C11.7904 14.4191 12.4021 14.4628 13.1886 14.3317C13.6256 14.288 14.5868 13.7637 14.8053 13.1956C15.0238 12.6276 15.0238 12.147 14.9364 12.0596C14.8927 11.9285 14.7179 11.8848 14.4994 11.7537Z" fill="white"/>
</svg>
