<svg width="25" height="17" viewBox="0 0 25 17" fill="none" xmlns="http://www.w3.org/2000/svg">
<path d="M24.0315 3.27266C23.7724 2.26016 22.9518 1.45859 21.9584 1.20547C20.1012 0.699219 12.7589 0.699219 12.7589 0.699219C12.7589 0.699219 5.37339 0.699219 3.51621 1.20547C2.52284 1.45859 1.70223 2.26016 1.44309 3.27266C0.924805 5.04453 0.924805 8.84141 0.924805 8.84141C0.924805 8.84141 0.924805 12.5961 1.44309 14.4102C1.70223 15.4227 2.52284 16.182 3.51621 16.4352C5.37339 16.8992 12.7589 16.8992 12.7589 16.8992C12.7589 16.8992 20.1012 16.8992 21.9584 16.4352C22.9518 16.182 23.7724 15.4227 24.0315 14.4102C24.5498 12.5961 24.5498 8.84141 24.5498 8.84141C24.5498 8.84141 24.5498 5.04453 24.0315 3.27266ZM10.3403 12.2586V5.42422L16.4733 8.84141L10.3403 12.2586Z" fill="white"/>
</svg>
