<svg width="98" height="15" viewBox="0 0 98 15" fill="none" xmlns="http://www.w3.org/2000/svg">
<path d="M0.154621 8.813C1.7603 8.813 1.7603 8.813 1.7603 8.813C1.91492 8.813 1.99817 8.90827 1.99817 9.11071C1.99817 9.26553 1.99818 9.40843 2.03386 9.52752C2.03386 9.64661 2.03386 9.74187 2.03386 9.82524C2.03386 9.9086 2.03386 10.0396 2.03386 10.1587C2.03386 10.2778 2.03386 10.3969 2.06954 10.5517C2.06954 10.8851 2.22416 11.2067 2.46204 11.4806C2.67613 11.7783 2.93779 11.9331 3.21135 11.9331C3.5087 11.9331 3.68711 11.814 3.86552 11.5758C4.04393 11.3615 4.13908 11.0637 4.22233 10.766C4.30559 10.4683 4.37696 10.1706 4.40074 9.83715C4.43642 9.53943 4.43642 9.32507 4.43642 9.20598C4.43642 8.90827 4.43642 8.49146 4.43642 7.97939C4.43642 7.46731 4.43642 6.9076 4.43642 6.31216C4.43642 5.71673 4.43642 5.12129 4.43642 4.49013C4.40074 3.83515 4.40074 3.26353 4.40074 2.76336C4.40074 2.2632 4.40074 1.83448 4.40074 1.47722C4.40074 1.14377 4.40074 0.941326 4.43642 0.9056C4.43642 0.846056 4.47211 0.81033 4.53158 0.786512C4.59104 0.726969 4.65051 0.691244 4.6862 0.691244C4.95976 0.655518 5.2571 0.655518 5.51877 0.655518C5.81612 0.691244 6.08968 0.655518 6.38702 0.655518C6.48217 0.655518 6.56543 0.691244 6.60111 0.750788C6.6368 0.786514 6.6368 0.846058 6.6368 0.929419C6.6368 1.14378 6.6368 1.46531 6.6368 1.94166C6.6368 2.45374 6.6368 2.98963 6.6368 3.58506C6.6368 4.1805 6.6368 4.83548 6.6368 5.49046C6.6368 6.18117 6.6368 6.80042 6.67248 7.39586C6.67248 7.99129 6.67248 8.52719 6.67248 8.94399C6.67248 9.39652 6.67248 9.71806 6.67248 9.83715C6.67248 10.6708 6.55354 11.3615 6.37513 11.9212C6.16104 12.4571 5.86369 12.9096 5.56634 13.2669C5.23332 13.6241 4.8765 13.8623 4.49589 14.0409C4.10339 14.1957 3.68711 14.2553 3.3065 14.2553C3.06863 14.2553 2.7356 14.2196 2.35499 14.1362C1.97439 14.0528 1.60568 13.8623 1.28454 13.6598C0.927724 13.3859 0.654164 13.0882 0.392499 12.6476C0.178408 12.2308 0.0356817 11.6949 0.0356817 11.0399C0.0356817 10.8256 0.0356817 10.5636 0.0356817 10.3254C0.0356817 10.0277 0.0356817 9.6347 0 9.13453C0 9.09881 0 9.03926 0.0356817 8.9559C-0.0237878 8.83681 0.0356817 8.813 0.154621 8.813Z" fill="#999999"/>
<path d="M15.914 10.7783C15.914 11.0761 15.8546 11.4333 15.7356 11.8501C15.581 12.2431 15.3788 12.6004 15.1052 12.9815C14.8079 13.3387 14.4511 13.6722 14.0348 13.8746C13.6185 14.1485 13.0833 14.2319 12.4886 14.2319C11.775 14.2319 11.1446 14.1366 10.7045 13.8984C10.2644 13.6603 9.87193 13.4221 9.59837 13.1244C9.32481 12.7909 9.12262 12.4932 9.06315 12.1359C8.94421 11.8025 8.84906 11.5048 8.82527 11.3023C8.82527 11.1832 8.78959 10.9451 8.78959 10.6116C8.75391 10.3139 8.75391 9.8971 8.75391 9.44457C8.75391 9.02777 8.75391 8.55142 8.75391 8.03934C8.75391 7.50345 8.75391 7.0271 8.75391 6.55075C8.75391 6.09822 8.75391 5.68141 8.75391 5.26461C8.75391 4.90734 8.75391 4.60962 8.75391 4.39527C8.75391 3.68074 8.87285 3.08531 9.05125 2.60896C9.22966 2.09688 9.50322 1.7158 9.82436 1.38236C10.1812 1.04891 10.5975 0.81074 11.0732 0.691653C11.549 0.536839 12.0842 0.477295 12.6551 0.477295C13.2498 0.477295 13.7256 0.572565 14.1775 0.775013C14.57 0.989371 14.8912 1.31091 15.1647 1.64435C15.4026 2.00161 15.581 2.41842 15.7356 2.93049C15.8546 3.40684 15.8902 3.91892 15.8902 4.47863C15.8902 4.63344 15.8902 4.83589 15.8902 5.13361C15.8902 5.43133 15.8902 5.78859 15.8902 6.18158C15.8902 6.57457 15.8902 6.99137 15.8902 7.46772C15.9259 7.88453 15.9259 8.30133 15.9259 8.71814C15.9259 9.17067 15.9259 9.52793 15.9259 9.88519C15.9259 10.2425 15.914 10.5402 15.914 10.7783ZM10.9186 10.2663C10.9186 10.3258 10.9186 10.4449 10.9543 10.6235C10.99 10.8379 11.0732 10.9808 11.1684 11.1952C11.2635 11.4095 11.4062 11.5524 11.5847 11.731C11.7987 11.8859 12.0366 11.9692 12.3578 11.9692C12.9287 11.9692 13.2855 11.7906 13.4877 11.4571C13.6423 11.1594 13.7612 10.7664 13.7612 10.2901C13.7612 4.41909 13.7612 4.41909 13.7612 4.41909C13.7612 4.32382 13.7256 4.18091 13.7256 4.00228C13.6899 3.78792 13.6661 3.58547 13.6066 3.37112C13.5115 3.15676 13.3925 3.01386 13.1903 2.85904C13.0357 2.68041 12.7384 2.62087 12.4172 2.62087C11.882 2.62087 11.4657 2.7995 11.2278 3.09722C10.99 3.45448 10.871 3.87128 10.871 4.40718C10.871 4.62153 10.871 4.85971 10.871 5.21697C10.871 5.55042 10.871 5.90768 10.871 6.3483C10.871 6.76511 10.871 7.18191 10.871 7.63444C10.871 8.05125 10.9067 8.46806 10.9067 8.86104C10.9067 9.21831 10.9067 9.55175 10.9067 9.78992C10.8829 10.0638 10.8829 10.2067 10.9186 10.2663Z" fill="#999999"/>
<path d="M21.5276 5.14459C21.5633 5.14459 21.6228 5.04932 21.7417 4.87069C21.8369 4.71587 21.9796 4.4777 22.0985 4.2157C22.2532 3.9418 22.3959 3.64409 22.5743 3.32255C22.7289 3.02483 22.9073 2.69139 23.05 2.42939C23.169 2.13168 23.3236 1.8935 23.4425 1.65533C23.5972 1.41715 23.6804 1.29806 23.6804 1.20279C23.7161 1.16707 23.7756 1.14325 23.835 1.08371C23.9302 1.04798 23.954 1.04798 23.9897 1.04798C24.2632 1.14325 24.4654 1.22661 24.739 1.3457C24.9531 1.40524 25.2147 1.50051 25.4288 1.6196C25.6429 1.67914 25.7024 1.83396 25.5834 2.01259C25.4288 2.25076 25.2861 2.60803 25.0125 3.1201C24.7747 3.59645 24.4773 4.13234 24.2038 4.66824C23.9064 5.20413 23.6685 5.71621 23.395 6.15683C23.1571 6.63318 22.943 6.96662 22.8241 7.14525C22.61 7.50252 22.5505 7.85978 22.5505 8.31231C22.5505 8.58621 22.5505 8.88393 22.5505 9.20546C22.5505 9.59845 22.5505 9.91999 22.5148 10.3368C22.5148 10.6941 22.5148 11.0513 22.5148 11.4443C22.4791 11.8016 22.4791 12.135 22.4791 12.4327C22.4791 12.7066 22.4791 12.9686 22.4791 13.1473C22.4791 13.3259 22.4791 13.4212 22.4791 13.445C22.4791 13.6831 22.4197 13.838 22.3007 13.957C22.1461 14.0523 22.0272 14.1119 21.9677 14.1119C20.8616 14.1119 20.8616 14.1119 20.8616 14.1119C20.7069 14.1119 20.5642 14.0523 20.4453 13.957C20.3501 13.8618 20.3263 13.7189 20.3263 13.5402C20.3263 13.3854 20.3263 13.0877 20.3263 12.6471C20.3263 12.2303 20.3263 11.7778 20.3263 11.2776C20.3263 10.8012 20.3263 10.3249 20.3263 9.81281C20.3263 9.36028 20.3263 9.00301 20.3263 8.76484C20.362 7.93123 20.1717 7.15716 19.7554 6.44264C19.577 6.14492 19.3629 5.78766 19.1251 5.27558C18.8515 4.82305 18.6136 4.38243 18.4114 3.9299C18.1379 3.47736 17.9595 3.06056 17.781 2.7033C17.6026 2.36985 17.5075 2.1674 17.4837 2.10786C17.3648 1.8935 17.3291 1.7506 17.3648 1.65533C17.4004 1.56006 17.5194 1.44097 17.6978 1.35761C17.9119 1.23852 18.0546 1.11943 18.2687 1.02416C18.4471 0.928894 18.6255 0.809807 18.8039 0.726445C18.9585 0.666902 19.1013 0.69072 19.1964 0.821716C19.351 1.15516 19.5889 1.53624 19.8268 2.01259C20.1004 2.52466 20.3382 3.00101 20.5761 3.47736C20.814 3.9299 21.0281 4.31097 21.2303 4.66824C21.4087 4.96596 21.5038 5.14459 21.5276 5.14459Z" fill="#999999"/>
<path d="M26.6786 2.97851C26.643 2.97851 26.643 2.88324 26.643 2.70461C26.6073 2.52597 26.6073 2.34734 26.6073 2.13299C26.6073 1.91863 26.5716 1.74 26.5716 1.56137C26.5716 1.38274 26.5716 1.28747 26.5716 1.28747C26.5359 1.07311 26.6073 0.954022 26.75 0.870661C26.8927 0.7873 27.0236 0.775391 27.083 0.775391C33.6247 0.775391 33.6247 0.775391 33.6247 0.775391C33.8031 0.775391 33.9577 0.775391 34.0766 0.775391C34.2313 0.811117 34.2907 0.870661 34.2907 0.989748C34.2907 1.02547 34.2907 1.10884 34.2907 1.28747C34.2907 1.44228 34.2907 1.64473 34.255 1.85908C34.255 2.03772 34.255 2.25207 34.255 2.4307C34.255 2.60934 34.255 2.72842 34.255 2.76415C34.255 2.88324 34.1956 2.97851 34.0766 2.97851C33.9577 3.01423 33.7436 3.01423 33.5057 3.01423C31.7454 3.01423 31.7454 3.01423 31.7454 3.01423C31.7098 3.01423 31.686 3.04996 31.6503 3.04996C31.6146 3.08568 31.5908 3.1095 31.5908 3.16905C31.5908 3.3834 31.5908 3.76448 31.5908 4.3361C31.5908 4.87199 31.5551 5.52698 31.5551 6.2415C31.5551 6.99175 31.5551 7.73009 31.5551 8.53989C31.5551 9.31395 31.5551 10.0642 31.5551 10.743C31.5551 11.4218 31.5908 11.9934 31.5908 12.4698C31.5908 12.9223 31.5908 13.1843 31.5908 13.2796C31.6265 13.6725 31.5551 13.875 31.4957 13.9703C31.4005 14.0655 31.1983 14.1251 30.8653 14.1489C30.7107 14.1489 30.5085 14.1489 30.3301 14.1489C30.0922 14.1489 29.9138 14.1489 29.7592 14.1489C29.5807 14.1489 29.4618 14.1132 29.4023 14.0298C29.3429 13.9465 29.3072 13.7916 29.3072 13.6368C29.3072 13.5416 29.3072 13.22 29.3072 12.7079C29.3072 12.172 29.3072 11.5409 29.3072 10.8621C29.2715 10.1118 29.2715 9.31395 29.2715 8.50416C29.2715 7.67055 29.2715 6.89648 29.2715 6.14623C29.2715 5.39598 29.2358 4.77672 29.2358 4.24083C29.2358 3.66921 29.2358 3.34768 29.2358 3.19286C29.2358 3.07378 29.2001 3.01423 29.1764 2.97851C29.1169 2.94278 29.0574 2.94278 28.9385 2.94278C28.7839 2.97851 28.5817 2.97851 28.3081 2.97851C28.0702 3.01423 27.8323 3.01423 27.5588 3.01423C27.3447 3.01423 27.1068 3.01423 26.9284 2.97851C26.8214 2.97851 26.7024 2.97851 26.6786 2.97851Z" fill="#999999"/>
<path d="M43.0916 10.7783C43.0916 11.0761 43.0321 11.4333 42.8775 11.8501C42.7586 12.2431 42.5445 12.6004 42.2471 12.9815C41.9736 13.3387 41.6168 13.6722 41.1767 13.8746C40.7604 14.1485 40.249 14.2319 39.6899 14.2319C38.9168 14.2319 38.3221 14.1366 37.8702 13.8984C37.3944 13.6603 37.0614 13.4221 36.764 13.1244C36.5262 12.7909 36.3121 12.4932 36.1931 12.1359C36.0742 11.8025 36.0147 11.5048 35.979 11.3023C35.979 11.1832 35.9434 10.9451 35.9434 10.6116C35.9434 10.3139 35.9434 9.8971 35.9434 9.44457C35.9434 9.02777 35.9434 8.55142 35.9434 8.03934C35.9434 7.50345 35.9434 7.0271 35.9434 6.55075C35.9434 6.09822 35.9434 5.68141 35.9434 5.26461C35.9434 4.90734 35.9434 4.60962 35.9434 4.39527C35.9434 3.68074 36.0028 3.08531 36.2169 2.60896C36.431 2.09688 36.6689 1.7158 37.0257 1.38236C37.3587 1.04891 37.775 0.81074 38.2508 0.691653C38.7622 0.536839 39.2618 0.477295 39.8565 0.477295C40.4274 0.477295 40.9269 0.572565 41.3194 0.775013C41.7357 0.989371 42.0925 1.31091 42.3304 1.64435C42.5683 2.00161 42.7467 2.41842 42.8656 2.93049C43.0202 3.40684 43.0797 3.91892 43.0797 4.47863C43.0797 4.63344 43.0797 4.83589 43.0797 5.13361C43.0797 5.43133 43.0797 5.78859 43.0797 6.18158C43.0797 6.57457 43.0797 6.99137 43.0797 7.46772C43.0797 7.88453 43.0797 8.30133 43.0797 8.71814C43.0797 9.17067 43.0797 9.52793 43.0797 9.88519C43.0797 10.2425 43.0916 10.5402 43.0916 10.7783ZM38.1199 10.2663C38.1199 10.3258 38.1199 10.4449 38.1556 10.6235C38.1913 10.8379 38.2151 10.9808 38.3102 11.1952C38.4292 11.4095 38.5838 11.5524 38.7622 11.731C38.9406 11.8859 39.2142 11.9692 39.5353 11.9692C40.0705 11.9692 40.463 11.7906 40.6415 11.4571C40.8555 11.1594 40.9388 10.7664 40.9388 10.2901C40.9388 4.41909 40.9388 4.41909 40.9388 4.41909C40.9388 4.32382 40.9388 4.18091 40.9388 4.00228C40.9031 3.78792 40.8436 3.58547 40.7842 3.37112C40.689 3.15676 40.5463 3.01386 40.3917 2.85904C40.1776 2.68041 39.9159 2.62087 39.5829 2.62087C39.0477 2.62087 38.6552 2.7995 38.3935 3.09722C38.1794 3.45448 38.0367 3.87128 38.0367 4.40718C38.0367 4.62153 38.0367 4.85971 38.0367 5.21697C38.0367 5.55042 38.0367 5.90768 38.0724 6.3483C38.0724 6.76511 38.0724 7.18191 38.0724 7.63444C38.0724 8.05125 38.0724 8.46806 38.0724 8.86104C38.108 9.21831 38.108 9.55175 38.108 9.78992C38.0962 10.0638 38.0962 10.2067 38.1199 10.2663Z" fill="#999999"/>
<path d="M47.219 8.87358C47.219 9.11175 47.219 9.40947 47.219 9.88582C47.219 10.3383 47.219 10.8385 47.1833 11.3506C47.1833 11.8269 47.1833 12.3033 47.1833 12.7201C47.1477 13.1369 47.1477 13.4703 47.1477 13.6133C47.1477 13.8514 47.0525 13.9705 46.8146 14.0062C46.7552 14.0062 46.6362 14.0062 46.5411 14.0062C46.4221 14.0062 46.3032 14.0062 46.1486 14.0062C46.0296 14.0062 45.9345 14.0062 45.8512 14.0062C45.7323 14.0062 45.6728 14.0062 45.6728 14.0062C45.2803 14.0658 45.0781 13.8872 45.0781 13.4942C45.0781 13.2798 45.0781 12.863 45.0781 12.1842C45.0781 11.5292 45.0781 10.7552 45.0781 9.862C45.0781 8.99266 45.0781 8.07569 45.0781 7.06345C45.0781 6.07502 45.0781 5.18187 45.0781 4.32444C45.0781 3.46701 45.1138 2.71676 45.1138 2.12132C45.1138 1.49016 45.1138 1.1329 45.1138 1.01381C45.1495 0.799454 45.209 0.716093 45.3279 0.65655C45.4468 0.597006 45.5063 0.561279 45.6015 0.561279C48.0754 0.561279 48.0754 0.561279 48.0754 0.561279C48.8485 0.561279 49.4432 0.716093 49.9189 0.978085C50.3709 1.2758 50.692 1.57352 50.9299 1.93078C51.1678 2.28805 51.3224 2.64531 51.3819 3.00257C51.4414 3.33601 51.477 3.59801 51.477 3.71709C51.477 4.01481 51.477 4.28871 51.5127 4.58643C51.5127 4.82461 51.5127 5.12232 51.5127 5.3605C51.5127 6.34892 51.3343 7.06345 51.0013 7.5398C50.6445 8.05187 50.2282 8.34959 49.7167 8.52822C49.5621 8.58777 49.3837 8.62349 49.1221 8.64731C48.8604 8.67113 48.6106 8.74258 48.3489 8.7664C48.1111 8.80212 47.8375 8.82594 47.6591 8.86167C47.4331 8.87358 47.2785 8.87358 47.219 8.87358ZM47.219 2.46668C47.1833 6.90863 47.1833 6.90864 47.1833 6.90864C47.3974 6.90864 47.5758 6.87291 47.7186 6.87291C47.897 6.83718 48.0754 6.83718 48.23 6.81336C48.3846 6.78955 48.5274 6.75382 48.6463 6.71809C48.8604 6.62282 49.0388 6.47992 49.1815 6.24175C49.3242 6.00357 49.3956 5.78921 49.3956 5.58676C49.3956 3.5861 49.3956 3.5861 49.3956 3.5861C49.3956 3.37174 49.3361 3.16929 49.2172 2.99066C49.0983 2.75249 48.9199 2.59767 48.682 2.53813C48.563 2.5024 48.4084 2.5024 48.2657 2.47859C48.0873 2.47859 47.9089 2.44286 47.7305 2.44286H47.219V2.46668Z" fill="#999999"/>
<path d="M54.593 11.9338C54.8666 11.9338 55.0093 12.0529 55.0093 12.2911C55.0093 12.565 55.0093 12.7674 55.0093 13.0056C55.0093 13.1843 55.0093 13.4224 55.0093 13.6606C55.0093 13.9345 54.9498 14.0774 54.8309 14.1727C54.712 14.2322 54.5336 14.2679 54.3195 14.2679C54.2243 14.2679 54.0816 14.2679 53.9032 14.2679C53.7248 14.2679 53.5464 14.2322 53.3917 14.2322C53.0944 14.2322 52.916 14.1965 52.8803 14.1131C52.8446 13.994 52.8208 13.8392 52.7852 13.6606C52.7852 13.3867 52.7852 13.1247 52.7852 12.8865C52.7852 12.6126 52.7852 12.3745 52.7852 12.1125C52.7852 11.9934 52.8446 11.9338 53.023 11.9338H54.593Z" fill="#999999"/>
<path d="M58.4348 8.59753C58.4943 8.63326 58.4943 8.6928 58.53 8.81189C58.53 8.93098 58.53 9.08579 58.53 9.2287C58.53 9.3716 58.53 9.56214 58.53 9.74077C58.53 9.9194 58.53 10.0742 58.5657 10.2171C58.5657 10.3124 58.6013 10.4315 58.6608 10.6101C58.6965 10.7887 58.7797 10.9436 58.8749 11.0865C58.9701 11.2651 59.089 11.4199 59.2674 11.539C59.4458 11.6581 59.6242 11.7533 59.8978 11.7533C60.1357 11.7533 60.3497 11.6581 60.4925 11.539C60.6352 11.4199 60.7304 11.2413 60.8255 11.0269C60.9207 10.8483 60.9801 10.6101 61.0039 10.3362C61.0277 10.0623 61.0396 9.76459 61.0396 9.46687C61.0396 9.10961 60.9207 8.75235 60.6471 8.51417C60.433 8.24027 60.1119 8.0021 59.7788 7.76392C59.422 7.54956 59.0295 7.34712 58.6132 7.10894C58.1969 6.89458 57.8044 6.63259 57.4238 6.33487C57.0908 6.03715 56.7697 5.67989 56.5556 5.22736C56.282 4.77483 56.1631 4.21512 56.1631 3.58396C56.1631 3.22669 56.2582 2.86943 56.4366 2.45263C56.6151 2.09536 56.8291 1.76192 57.1503 1.44038C57.4833 1.14266 57.8639 0.868765 58.3397 0.690134C58.7916 0.475777 59.3269 0.356689 59.9454 0.356689C60.5163 0.356689 61.0158 0.475777 61.3726 0.690134C61.7651 0.904492 62.1219 1.14266 62.3598 1.38084C62.5977 1.65474 62.8118 1.91673 62.895 2.09536C63.014 2.33354 63.0735 2.45263 63.0735 2.45263C63.1924 2.60744 63.2281 2.6908 63.2281 2.78607C63.1924 2.84561 63.1329 2.90516 62.9902 3.00043C62.7761 3.11952 62.5739 3.2386 62.336 3.39342C62.1576 3.5125 61.9197 3.63159 61.7057 3.75068C61.6462 3.7864 61.5867 3.7864 61.4916 3.75068C61.3964 3.75068 61.3726 3.71495 61.3726 3.69113C61.2537 3.41723 61.0753 3.15524 60.8017 2.91707C60.5638 2.64317 60.2665 2.50026 59.9335 2.50026C59.5766 2.50026 59.2436 2.61935 58.9225 2.79798C58.6251 3.01234 58.4705 3.33387 58.4705 3.84595C58.4705 4.11985 58.5657 4.3223 58.7441 4.53665C58.9225 4.75101 59.1366 4.89392 59.3982 5.04873C59.6123 5.20354 59.874 5.32263 60.0881 5.40599C60.326 5.52508 60.5044 5.62035 60.6233 5.67989C60.7185 5.77516 60.9207 5.89425 61.218 6.0967C61.551 6.33487 61.8484 6.57305 62.1695 6.93031C62.5025 7.26375 62.7999 7.68056 63.0378 8.12118C63.2757 8.63326 63.4303 9.16915 63.4303 9.76459C63.4303 9.88367 63.3946 10.098 63.3708 10.36C63.347 10.622 63.2756 10.9316 63.1924 11.2889C63.0972 11.5866 62.9783 11.9796 62.8356 12.3011C62.6572 12.6584 62.4431 12.9919 62.1814 13.2538C61.8841 13.5516 61.551 13.7897 61.1704 13.9684C60.7185 14.1827 60.2427 14.2661 59.6837 14.2661C59.1247 14.2661 58.6132 14.1708 58.1969 13.9684C57.7807 13.7659 57.4238 13.5516 57.1265 13.2181C56.8291 12.9442 56.6151 12.6227 56.4723 12.2892C56.3177 11.9915 56.2344 11.6581 56.2344 11.3604C56.2344 10.9078 56.2344 10.4672 56.2344 10.0504C56.2344 9.63359 56.2344 9.21679 56.2344 8.76425C56.2344 8.64517 56.2344 8.58562 56.2701 8.5499C56.3296 8.51417 56.3891 8.51417 56.508 8.51417C56.6864 8.51417 56.8648 8.51417 57.0789 8.51417C57.293 8.51417 57.4952 8.51417 57.7093 8.51417C57.8877 8.51417 58.0661 8.51417 58.2207 8.51417C58.3159 8.53799 58.3991 8.57372 58.4348 8.59753Z" fill="#999999"/>
<path d="M67.32 8.87089C67.32 9.10907 67.32 9.40678 67.32 9.88313C67.2843 10.3357 67.2843 10.8358 67.2843 11.3479C67.2843 11.8243 67.2843 12.3006 67.2843 12.7174C67.2843 13.1342 67.2843 13.4677 67.2843 13.6106C67.2843 13.8487 67.1653 13.9678 66.9275 14.0036C66.8323 14.0036 66.7491 14.0036 66.6539 14.0036C66.4993 14.0036 66.3803 14.0036 66.2614 14.0036C66.1663 14.0036 66.0473 14.0036 65.9284 14.0036C65.8332 14.0036 65.7738 14.0036 65.75 14.0036C65.3575 14.0631 65.1553 13.8845 65.1553 13.4915C65.1553 13.2771 65.1553 12.8603 65.1553 12.1815C65.1553 11.5265 65.1553 10.7525 65.1553 9.85932C65.1553 8.98998 65.1553 8.07301 65.191 7.06076C65.191 6.07234 65.191 5.17918 65.191 4.32175C65.191 3.46433 65.191 2.71408 65.191 2.11864C65.2266 1.48748 65.2266 1.13021 65.2266 1.01113C65.2266 0.796769 65.2861 0.713408 65.405 0.653864C65.524 0.59432 65.6191 0.558594 65.7024 0.558594C68.1406 0.558594 68.1406 0.558594 68.1406 0.558594C68.9494 0.558594 69.5441 0.713407 69.9842 0.975399C70.4362 1.27312 70.793 1.57084 71.0309 1.9281C71.2449 2.28536 71.3877 2.64262 71.4471 2.99988C71.5423 3.33333 71.5661 3.59532 71.5661 3.71441C71.5661 4.01213 71.5661 4.28603 71.5661 4.58375C71.5661 4.82192 71.6018 5.11964 71.6018 5.35781C71.6018 6.34624 71.3877 7.06076 71.0665 7.53711C70.7097 8.04919 70.2934 8.34691 69.8177 8.52554C69.6631 8.58508 69.4847 8.62081 69.223 8.64462C68.9851 8.68035 68.7116 8.73989 68.4142 8.76371C68.1763 8.79944 67.9384 8.82326 67.7244 8.85898C67.5103 8.89471 67.3794 8.87089 67.32 8.87089ZM67.2962 2.46399C67.2962 6.90595 67.2962 6.90595 67.2962 6.90595C67.4746 6.90595 67.6887 6.87022 67.8671 6.87022C67.986 6.8345 68.1644 6.8345 68.3428 6.81068C68.4975 6.77495 68.6164 6.75114 68.7353 6.71541C68.9732 6.62014 69.1516 6.47723 69.3062 6.23906C69.4252 6.00089 69.5203 5.78653 69.5203 5.58408C69.5203 3.58341 69.5203 3.58341 69.5203 3.58341C69.5203 3.36905 69.4609 3.16661 69.3419 2.98797C69.223 2.7498 69.0089 2.59499 68.8067 2.53544C68.6521 2.49972 68.5094 2.49972 68.3547 2.4759C68.1763 2.4759 67.9979 2.44017 67.879 2.44017H67.2962V2.46399Z" fill="#999999"/>
<path d="M80.9387 13.8362C80.9031 13.8362 80.8198 13.872 80.7009 13.8958C80.5225 13.9315 80.3678 13.9911 80.1656 14.0506C80.011 14.0863 79.8326 14.1459 79.6542 14.2054C79.4996 14.2411 79.3807 14.265 79.2974 14.265C79.1785 14.3007 79.0833 14.3007 79.0238 14.265C78.9644 14.2292 78.9049 14.2054 78.8692 14.1459C78.8335 14.0863 78.8097 13.9911 78.7741 13.9077C78.7146 13.5504 78.6551 13.1932 78.5957 12.8359C78.5362 12.562 78.4767 12.2405 78.4172 11.9428C78.3578 11.6093 78.2983 11.3711 78.2626 11.133C78.2269 11.0139 78.2032 10.9543 78.1437 10.8948C78.0842 10.8591 78.0247 10.8591 77.9058 10.8591C77.8701 10.8591 77.7274 10.8591 77.4895 10.8591C77.2754 10.8591 77.0376 10.8591 76.7997 10.8591C76.5618 10.8591 76.3239 10.8591 76.1455 10.8591C75.9314 10.8948 75.8482 10.9186 75.8482 10.9543C75.8125 11.0139 75.7887 11.1925 75.6935 11.4902C75.6579 11.7879 75.5746 12.1214 75.4795 12.5025C75.3843 12.8597 75.301 13.1932 75.2059 13.5147C75.1464 13.8124 75.087 13.9911 75.087 14.0268C75.0513 14.0863 74.9323 14.0863 74.7539 14.0625C74.5755 14.003 74.4209 13.9672 74.2187 13.9077C74.0165 13.8482 73.8619 13.7886 73.6835 13.7291C73.5289 13.6695 73.4456 13.6695 73.4099 13.6695C73.2553 13.61 73.1126 13.5504 72.9936 13.4552C72.839 13.3361 72.8152 13.1813 72.8747 13.0026C72.9104 12.8478 73.0293 12.4667 73.2077 11.8118C73.3861 11.1568 73.5645 10.347 73.8024 9.48956C74.0165 8.62022 74.2782 7.66752 74.516 6.69101C74.8134 5.70258 75.0513 4.78561 75.2654 3.952C75.5032 3.08266 75.6816 2.40386 75.8601 1.83224C76.0147 1.26063 76.0979 0.962907 76.1336 0.93909C76.1931 0.84382 76.2526 0.784276 76.312 0.760459C76.4072 0.724733 76.4904 0.700915 76.5856 0.700915C76.8235 0.700915 77.0613 0.665189 77.3349 0.665189C77.5728 0.629463 77.8463 0.665189 78.0485 0.700915C78.1675 0.700915 78.2626 0.700915 78.3221 0.700915C78.3816 0.736642 78.441 0.796186 78.4767 0.855729C78.5362 1.07009 78.6551 1.48689 78.8097 2.10615C78.9881 2.76113 79.1428 3.53519 79.3212 4.40453C79.5353 5.27387 79.678 6.22657 79.8921 7.17926C80.1062 8.16769 80.2846 9.12039 80.463 9.954C80.6414 10.8472 80.7603 11.5617 80.8793 12.2167C81.0339 12.8716 81.1172 13.2646 81.1528 13.4433C81.1885 13.5623 81.1885 13.6576 81.1528 13.7172C81.1172 13.7767 81.0577 13.8124 80.9387 13.8362ZM76.3596 8.69167C76.3953 8.7274 76.4548 8.7274 76.538 8.75122C76.6569 8.75122 76.7759 8.75122 76.8948 8.75122C77.0494 8.75122 77.1922 8.75122 77.3468 8.75122C77.4657 8.75122 77.5847 8.75122 77.7036 8.75122C77.7393 8.75122 77.7631 8.71549 77.7988 8.71549C77.8344 8.67976 77.8344 8.62022 77.7988 8.50113C77.7631 8.34632 77.7393 8.14387 77.7036 7.86997C77.6441 7.57225 77.5847 7.29835 77.549 7.00063C77.4895 6.70292 77.4301 6.4052 77.3706 6.16702C77.3706 5.89312 77.3349 5.75022 77.3111 5.65495C77.3111 5.65495 77.2754 5.61922 77.2754 5.55968C77.2754 5.50013 77.2398 5.52395 77.1803 5.65495C77.1803 5.69067 77.1446 5.80976 77.0851 5.95267C77.0494 6.10748 76.99 6.30993 76.9305 6.52428C76.8354 6.76246 76.7759 6.97682 76.7521 7.23881C76.6569 7.47698 76.5975 7.71516 76.5142 7.92951C76.4548 8.14387 76.3953 8.3225 76.3596 8.4654C76.3239 8.60831 76.3596 8.69167 76.3596 8.69167Z" fill="#999999"/>
<path d="M85.7903 14.612C85.3384 14.612 84.9578 14.5525 84.6247 14.3738C84.2679 14.219 83.9706 14.0404 83.7327 13.7784C83.4948 13.5402 83.2807 13.2425 83.138 12.9091C83.0191 12.5518 82.9596 12.1945 82.9596 11.8016C82.9596 11.7063 82.9596 11.5038 82.9596 11.1704C82.9596 10.837 82.9239 10.4201 82.9239 9.94379C82.9239 9.46744 82.9239 8.95537 82.8882 8.39566C82.8882 7.85977 82.8882 7.32387 82.8882 6.78798C82.8525 6.2759 82.8525 5.79955 82.8525 5.35893C82.8525 4.94213 82.8525 4.60868 82.8882 4.37051C82.8882 4.21569 82.8882 4.07279 82.9239 3.77507C82.9596 3.53689 82.9596 3.23918 83.0428 2.94146C83.1023 2.5842 83.2213 2.28648 83.3759 1.89349C83.5305 1.56004 83.6732 1.26232 83.9111 0.964607C84.1252 0.726432 84.4225 0.452532 84.7437 0.273901C85.1362 0.0952703 85.5168 0 86.0282 0C86.6229 0 87.0987 0.119087 87.4912 0.297718C87.8837 0.512076 88.181 0.750251 88.4189 1.04797C88.633 1.34569 88.8114 1.70295 88.8946 2.06021C89.0136 2.41747 89.0731 2.77473 89.1087 3.10818C89.1444 3.46544 89.1444 3.73934 89.1087 4.03706C89.1087 4.27524 89.0731 4.45387 89.0731 4.57295C89.0731 4.69204 88.9779 4.75159 88.859 4.75159C88.74 4.75159 88.6449 4.75159 88.5616 4.78731C88.3832 4.78731 88.2286 4.78731 88.0859 4.78731C87.9907 4.75159 87.8123 4.75159 87.6101 4.78731C87.3722 4.78731 87.1938 4.69204 87.1343 4.45387C87.0987 4.39432 87.0987 4.21569 87.0987 3.97752C87.0987 3.70362 87.063 3.46544 87.0035 3.16772C86.944 2.87 86.8489 2.5961 86.7062 2.39365C86.5515 2.15548 86.3137 2.00067 86.052 2.00067C85.8974 2.00067 85.7784 2.09594 85.6595 2.21502C85.5049 2.36984 85.3859 2.51274 85.267 2.7271C85.1719 2.96527 85.1124 3.17963 85.0529 3.47735C84.9934 3.75125 84.934 4.04897 84.934 4.31096C84.934 4.46578 84.934 4.70395 84.934 5.08503C84.934 5.41847 84.934 5.79955 84.934 6.2759C84.934 6.72844 84.934 7.20478 84.934 7.70495C84.934 8.1813 84.934 8.63383 84.934 9.07446C84.934 9.49126 84.934 9.82471 84.934 10.1224C84.934 10.4201 84.934 10.5988 84.934 10.6345C84.934 10.7536 84.934 10.8727 84.9697 11.087C85.0053 11.3014 85.0648 11.48 85.1243 11.6825C85.1837 11.8849 85.2789 12.0755 85.4216 12.2184C85.5406 12.3732 85.6952 12.4565 85.8736 12.4565C86.2304 12.4565 86.4683 12.2779 86.6467 11.9802C86.8251 11.6467 86.9203 11.2895 86.9797 10.8727C87.0392 10.5154 87.0749 10.1582 87.0749 9.80089C87.0749 9.46745 87.0749 9.28881 87.0749 9.265C87.0749 9.11018 87.17 9.02682 87.3484 9.02682C87.5863 9.02682 87.8242 8.9911 88.0026 8.9911C88.2167 8.9911 88.4546 8.95537 88.6924 8.95537C88.9898 8.91964 89.1444 9.05064 89.1444 9.31263C89.1444 9.4079 89.1444 9.58653 89.1444 9.84852C89.1801 10.182 89.1444 10.5035 89.1444 10.8608C89.1087 11.2776 89.0255 11.6944 88.9065 12.1112C88.7876 12.528 88.6092 12.9448 88.3713 13.3021C88.0977 13.6593 87.8004 13.9928 87.3841 14.2309C86.9678 14.4691 86.4088 14.612 85.7903 14.612Z" fill="#999999"/>
<path d="M97.6846 2.88207C97.5657 3.00116 97.4467 3.03688 97.2921 3.0607C97.1375 3.08452 96.9591 3.09643 96.8163 3.0607C96.7569 3.0607 96.6022 3.0607 96.3644 3.0607C96.1503 3.0607 95.8886 3.0607 95.6151 3.0607C95.3177 3.0607 95.0441 3.0607 94.7468 3.0607C94.4732 3.0607 94.271 3.02497 94.1164 3.02497C93.8785 3.02497 93.7239 3.02497 93.6644 3.0607C93.6288 3.12024 93.605 3.27506 93.5693 3.51323C93.5693 3.63232 93.5693 3.81095 93.5693 4.02531C93.5693 4.23967 93.5693 4.44211 93.605 4.68029C93.605 4.85892 93.6407 5.03755 93.6407 5.21618C93.6407 5.33527 93.6407 5.45435 93.6407 5.49008C93.8191 5.49008 94.0926 5.45436 94.3543 5.45436C94.6873 5.45436 94.949 5.45435 95.282 5.49008C95.615 5.49008 95.8767 5.49008 96.1741 5.52581C96.4476 5.52581 96.6498 5.56153 96.745 5.56153C96.8996 5.62108 96.9591 5.74017 96.9829 5.89498C97.0185 5.99025 97.0185 6.10934 97.0185 6.1927C97.0185 6.6095 97.0185 6.6095 97.0185 6.6095C96.9829 6.72859 96.9829 6.8834 96.9591 7.00249C96.9591 7.1573 96.9234 7.27639 96.9234 7.39548C96.8639 7.49075 96.7093 7.55029 96.5309 7.57411C96.4357 7.57411 96.3525 7.57411 96.2573 7.57411C95.841 7.57411 95.4842 7.60984 95.1869 7.60984C94.8895 7.60984 94.616 7.60984 94.3543 7.60984C94.1164 7.60984 93.9618 7.60984 93.9023 7.60984C93.6882 7.60984 93.605 7.72892 93.605 7.90755C93.5693 8.20527 93.5455 8.59826 93.5455 9.01507C93.5455 9.4676 93.5455 9.84868 93.5812 10.3012C93.5812 10.6942 93.5812 11.0157 93.5812 11.3492C93.6169 11.6231 93.6169 11.8017 93.6169 11.8255C93.712 11.8255 93.8904 11.8255 94.1878 11.8255C94.4851 11.7898 94.8182 11.7898 95.1988 11.7898C95.5556 11.7898 95.9124 11.7898 96.3049 11.7898C96.6617 11.7898 96.9353 11.7898 97.1969 11.7898C97.3159 11.7898 97.411 11.8255 97.4943 11.8493C97.5538 11.8851 97.6132 11.9446 97.6489 11.9684C97.6846 11.9922 97.7084 12.0637 97.7441 12.0637C97.7084 12.3614 97.7084 12.6353 97.6846 12.8378C97.6846 13.0521 97.6489 13.2308 97.6489 13.4094C97.6489 13.6237 97.6489 13.7428 97.6489 13.7428C97.6489 13.8381 97.6132 13.9215 97.4943 13.981C97.4348 14.0406 97.3159 14.1001 97.1969 14.1001C97.1018 14.1001 96.9234 14.1001 96.6022 14.1001C96.3049 14.1001 95.9481 14.1001 95.5318 14.1001C95.1155 14.1001 94.6992 14.1001 94.1878 14.1001C93.7358 14.1001 93.2957 14.1001 92.8794 14.1001C92.4632 14.1001 92.0707 14.1001 91.7495 14.1001C91.4284 14.1001 91.2381 14.1001 91.1191 14.1001C91.1191 14.0644 91.1191 13.8262 91.1191 13.4689C91.1191 13.1117 91.1191 12.6353 91.1191 12.0637C91.1191 11.4921 91.1191 10.8371 91.1191 10.0988C91.1191 9.36042 91.1191 8.63399 91.1191 7.85992C91.1191 7.08585 91.1191 6.37133 91.1191 5.62108C91.1191 4.87083 91.1191 4.21585 91.1548 3.62041C91.1548 3.02497 91.1548 2.5129 91.1548 2.09609C91.1548 1.7031 91.1548 1.46493 91.1548 1.40539C91.1548 1.2863 91.2143 1.19103 91.3094 1.07194C91.3689 0.952854 91.4879 0.893311 91.583 0.893311C91.7376 0.893311 91.9398 0.893311 92.2729 0.893311C92.5464 0.893311 92.9032 0.893311 93.2838 0.893311C93.6407 0.893311 94.0569 0.893311 94.4494 0.893311C94.8657 0.893311 95.2582 0.893311 95.6151 0.893311C95.9719 0.893311 96.3049 0.893311 96.5666 0.893311C96.8639 0.893311 97.0423 0.893311 97.1613 0.893311C97.3397 0.893311 97.4943 0.929037 97.5538 0.988581C97.6489 1.08385 97.7322 1.16721 97.7679 1.26248C97.8035 1.35775 97.8273 1.44111 97.8035 1.59593C97.8035 2.07227 97.8035 2.07227 97.8035 2.07227C97.8035 2.22709 97.8035 2.36999 97.7679 2.52481C97.7441 2.62008 97.7084 2.76298 97.6846 2.88207Z" fill="#999999"/>
</svg>
