<svg width="61" height="74" viewBox="0 0 61 74" fill="none" xmlns="http://www.w3.org/2000/svg">
<g filter="url(#filter0_d)">
<path d="M47.8181 40.647L21.6934 19.2722C21.1862 18.8563 20.4379 18.9304 20.0221 19.4376C19.8484 19.6494 19.7534 19.9148 19.7529 20.1888V55.8135C19.7535 56.4693 20.2855 57.0006 20.9413 57C21.338 56.9997 21.7084 56.8014 21.9284 56.4713L31.0791 42.751H47.0651C47.721 42.7503 48.252 42.218 48.2512 41.5622C48.2508 41.2065 48.0909 40.8697 47.8156 40.6445L47.8181 40.647Z" fill="#2842B0"/>
</g>
<path d="M14.1218 39.1126C13.9758 39.1127 13.8309 39.0861 13.6943 39.0342C3.28847 35.0316 -1.90238 23.3511 2.10027 12.9453C6.10293 2.53944 17.7833 -2.6514 28.1892 1.35125C38.5948 5.35379 43.7858 17.0339 39.7835 27.4396C39.548 28.0521 38.8606 28.3579 38.2481 28.1224C37.6355 27.8869 37.3298 27.1995 37.5653 26.587C41.0994 17.4062 36.5218 7.09884 27.3411 3.56477C18.1604 0.0306896 7.85288 4.60823 4.3188 13.7889C0.784723 22.9696 5.36227 33.2771 14.543 36.8111C14.5451 36.8119 14.5472 36.8128 14.5493 36.8136C15.1618 37.0479 15.4685 37.7344 15.2342 38.347C15.058 38.8078 14.6152 39.1116 14.1218 39.1103V39.1126Z" fill="white"/>
<path d="M16.6798 32.4632C16.5337 32.4633 16.3889 32.4367 16.2523 32.3848C9.51912 29.7948 6.16039 22.2369 8.7503 15.5038C11.3402 8.77059 18.8982 5.41185 25.6314 8.00177C32.3643 10.5917 35.7232 18.1492 33.1336 24.8823C32.8981 25.4948 32.2107 25.8005 31.5982 25.5651C30.9856 25.3296 30.6799 24.6422 30.9154 24.0296C33.0368 18.5215 30.2913 12.3366 24.7833 10.2153C19.2753 8.09394 13.0903 10.8394 10.9689 16.3474C8.84749 21.8555 11.593 28.0404 17.1011 30.1618C17.1032 30.1625 17.1053 30.1633 17.1073 30.1642C17.7198 30.3985 18.0265 31.085 17.7922 31.6975C17.6159 32.1583 17.1731 32.4621 16.6798 32.4608V32.4632Z" fill="white"/>
<defs>
<filter id="filter0_d" x="11.7529" y="16.0029" width="48.4983" height="57.9971" filterUnits="userSpaceOnUse" color-interpolation-filters="sRGB">
<feFlood flood-opacity="0" result="BackgroundImageFix"/>
<feColorMatrix in="SourceAlpha" type="matrix" values="0 0 0 0 0 0 0 0 0 0 0 0 0 0 0 0 0 0 127 0"/>
<feOffset dx="2" dy="7"/>
<feGaussianBlur stdDeviation="5"/>
<feColorMatrix type="matrix" values="0 0 0 0 0 0 0 0 0 0.388235 0 0 0 0 0.690196 0 0 0 0.2 0"/>
<feBlend mode="normal" in2="BackgroundImageFix" result="effect1_dropShadow"/>
<feBlend mode="normal" in="SourceGraphic" in2="effect1_dropShadow" result="shape"/>
</filter>
</defs>
</svg>
