<svg width="163" height="36" viewBox="0 0 163 36" fill="none" xmlns="http://www.w3.org/2000/svg">
<path d="M20.8685 21.6337H22.5343C25.0892 21.6337 30.1582 19.3441 30.1582 10.3707C30.1582 1.39727 25.314 0.0214844 23.0913 0.0214844H0V34.6369H6.99023V15.2989L21.5226 34.6215H30.7202L20.8685 21.6337ZM6.96979 14.4929V7.16224H19.9947C21.5839 7.16224 22.2175 7.80393 22.2175 10.7557C22.2175 13.7075 21.2671 14.5083 19.913 14.5083L6.96979 14.4929Z" fill="white"/>
<path d="M53.3516 20.5542H40.6282V27.4896H53.3005C54.9152 27.4896 56.3664 26.8428 56.3664 23.8961C56.3869 21.3293 54.6751 20.6774 53.3516 20.5542ZM54.5065 0.0200195C56.5504 0.0200195 60.9346 1.12886 60.9346 10.1023C60.9613 11.7084 60.7722 13.3108 60.3725 14.8662C62.4676 16.4063 64.2304 19.3119 64.2304 24.5532C64.2304 33.5266 57.3731 34.6355 55.1094 34.6355H33.5V0.0200195H54.5116H54.5065ZM52.6312 13.4032C53.3925 13.3159 53.9239 12.8898 53.9239 10.744C53.9239 7.81273 53.2035 7.1505 51.7574 7.1505H40.618V13.4032H52.6312Z" fill="white"/>
<path d="M85.3901 34.636H75.6252C71.7213 34.636 69.0386 30.9706 68.1444 27.7673C67.2962 24.7283 67.0458 19.143 67.0203 16.9869C66.9896 14.5279 67.3728 9.63565 68.1444 6.86867C69.0386 3.66535 71.7213 0 75.6252 0H94.1636V7.16129H78.1443C75.7887 7.16129 74.4857 9.26604 74.4857 13.7528V20.8986C74.4857 25.3853 75.7836 27.4901 78.1443 27.4901H87.3114C90.6685 27.3874 91.3175 26.1554 91.3992 23.9839H86.2076V16.838H97.7507V26.217C97.7409 28.0275 97.1662 29.7893 96.1074 31.2544C95.0487 32.7196 93.5593 33.8143 91.8489 34.3844C90.7758 34.7643 85.3901 34.636 85.3901 34.636Z" fill="white"/>
<rect x="105.428" width="2.04713" height="34.8013" fill="white"/>
<path d="M119.025 7.98382L117.514 5.80124H115.847V7.98382H114.033V0.148926H117.425C118.119 0.148926 118.72 0.264584 119.227 0.4959C119.742 0.727216 120.137 1.05554 120.413 1.48086C120.689 1.90618 120.827 2.40985 120.827 2.99187C120.827 3.57389 120.686 4.07757 120.402 4.50289C120.126 4.92075 119.731 5.24161 119.216 5.46546L120.973 7.98382H119.025ZM118.992 2.99187C118.992 2.55163 118.85 2.21585 118.567 1.98453C118.283 1.74575 117.869 1.62636 117.324 1.62636H115.847V4.35738H117.324C117.869 4.35738 118.283 4.238 118.567 3.99922C118.85 3.76044 118.992 3.42466 118.992 2.99187Z" fill="white"/>
<path d="M128.331 6.52877V7.98382H122.264V0.148926H128.185V1.60398H124.066V3.30527H127.704V4.71555H124.066V6.52877H128.331Z" fill="white"/>
<path d="M134.933 6.30492H131.295L130.602 7.98382H128.744L132.236 0.148926H134.026L137.53 7.98382H135.627L134.933 6.30492ZM134.362 4.92821L133.12 1.92857L131.877 4.92821H134.362Z" fill="white"/>
<path d="M138.343 0.148926H140.156V6.50638H144.085V7.98382H138.343V0.148926Z" fill="white"/>
<path d="M145.988 1.62636H143.481V0.148926H150.309V1.62636H147.801V7.98382H145.988V1.62636Z" fill="white"/>
<path d="M154.903 5.20803V7.98382H153.09V5.18564L150.056 0.148926H151.982L154.075 3.62986L156.168 0.148926H157.947L154.903 5.20803Z" fill="white"/>
<path d="M119.787 17.216C120.234 17.3578 120.585 17.5966 120.839 17.9324C121.092 18.2607 121.219 18.6674 121.219 19.1524C121.219 19.8389 120.951 20.3687 120.413 20.7418C119.884 21.1074 119.108 21.2902 118.085 21.2902H114.033V13.4553H117.861C118.817 13.4553 119.548 13.6381 120.055 14.0037C120.57 14.3694 120.827 14.8656 120.827 15.4924C120.827 15.8729 120.734 16.2124 120.548 16.5109C120.369 16.8094 120.115 17.0444 119.787 17.216ZM115.836 14.8208V16.6676H117.638C118.085 16.6676 118.425 16.5893 118.656 16.4326C118.887 16.2759 119.003 16.0445 119.003 15.7386C119.003 15.4327 118.887 15.2051 118.656 15.0559C118.425 14.8992 118.085 14.8208 117.638 14.8208H115.836ZM117.951 19.9247C118.428 19.9247 118.787 19.8463 119.025 19.6896C119.272 19.5329 119.395 19.2904 119.395 18.9621C119.395 18.3129 118.914 17.9883 117.951 17.9883H115.836V19.9247H117.951Z" fill="white"/>
<path d="M127.584 21.2902L126.073 19.1076H124.405V21.2902H122.592V13.4553H125.983C126.677 13.4553 127.278 13.571 127.785 13.8023C128.3 14.0336 128.696 14.3619 128.972 14.7872C129.248 15.2126 129.386 15.7162 129.386 16.2982C129.386 16.8803 129.244 17.3839 128.961 17.8093C128.685 18.2271 128.289 18.548 127.774 18.7718L129.531 21.2902H127.584ZM127.55 16.2982C127.55 15.858 127.409 15.5222 127.125 15.2909C126.841 15.0521 126.427 14.9327 125.883 14.9327H124.405V17.6638H125.883C126.427 17.6638 126.841 17.5444 127.125 17.3056C127.409 17.0668 127.55 16.731 127.55 16.2982Z" fill="white"/>
<path d="M134.617 21.4245C133.804 21.4245 133.069 21.2492 132.412 20.8985C131.763 20.5477 131.252 20.0665 130.879 19.4546C130.513 18.8353 130.33 18.1413 130.33 17.3727C130.33 16.6042 130.513 15.914 130.879 15.3021C131.252 14.6828 131.763 14.1978 132.412 13.847C133.069 13.4963 133.804 13.321 134.617 13.321C135.43 13.321 136.161 13.4963 136.811 13.847C137.46 14.1978 137.971 14.6828 138.344 15.3021C138.717 15.914 138.904 16.6042 138.904 17.3727C138.904 18.1413 138.717 18.8353 138.344 19.4546C137.971 20.0665 137.46 20.5477 136.811 20.8985C136.161 21.2492 135.43 21.4245 134.617 21.4245ZM134.617 19.8799C135.08 19.8799 135.497 19.7754 135.87 19.5665C136.244 19.3501 136.535 19.0517 136.743 18.6711C136.96 18.2906 137.068 17.8578 137.068 17.3727C137.068 16.8877 136.96 16.4549 136.743 16.0744C136.535 15.6938 136.244 15.3991 135.87 15.1902C135.497 14.9738 135.08 14.8656 134.617 14.8656C134.154 14.8656 133.736 14.9738 133.363 15.1902C132.99 15.3991 132.695 15.6938 132.479 16.0744C132.27 16.4549 132.166 16.8877 132.166 17.3727C132.166 17.8578 132.27 18.2906 132.479 18.6711C132.695 19.0517 132.99 19.3501 133.363 19.5665C133.736 19.7754 134.154 19.8799 134.617 19.8799Z" fill="white"/>
<path d="M143.121 18.2122L142.068 19.3091V21.2902H140.266V13.4553H142.068V17.1153L145.538 13.4553H147.553L144.307 16.9474L147.743 21.2902H145.628L143.121 18.2122Z" fill="white"/>
<path d="M154.618 19.8351V21.2902H148.552V13.4553H154.473V14.9104H150.354V16.6116H153.991V18.0219H150.354V19.8351H154.618Z" fill="white"/>
<path d="M161.053 21.2902L159.542 19.1076H157.874V21.2902H156.061V13.4553H159.452C160.146 13.4553 160.747 13.571 161.254 13.8023C161.769 14.0336 162.165 14.3619 162.441 14.7872C162.717 15.2126 162.855 15.7162 162.855 16.2982C162.855 16.8803 162.713 17.3839 162.429 17.8093C162.153 18.2271 161.758 18.548 161.243 18.7718L163 21.2902H161.053ZM161.019 16.2982C161.019 15.858 160.877 15.5222 160.594 15.2909C160.31 15.0521 159.896 14.9327 159.351 14.9327H157.874V17.6638H159.351C159.896 17.6638 160.31 17.5444 160.594 17.3056C160.877 17.0668 161.019 16.731 161.019 16.2982Z" fill="white"/>
<path d="M119.328 31.0678H120.984V34.2465C120.559 34.5674 120.066 34.8136 119.507 34.9852C118.947 35.1569 118.384 35.2427 117.817 35.2427C117.003 35.2427 116.272 35.071 115.623 34.7278C114.974 34.3771 114.463 33.8958 114.089 33.2839C113.724 32.6646 113.541 31.9669 113.541 31.1909C113.541 30.4149 113.724 29.7209 114.089 29.1091C114.463 28.4897 114.977 28.0084 115.634 27.6652C116.291 27.3145 117.029 27.1391 117.85 27.1391C118.537 27.1391 119.16 27.2548 119.719 27.4861C120.279 27.7174 120.749 28.0532 121.13 28.4935L119.966 29.568C119.406 28.9785 118.731 28.6837 117.94 28.6837C117.44 28.6837 116.996 28.7882 116.608 28.9971C116.22 29.2061 115.918 29.5008 115.701 29.8814C115.485 30.2619 115.377 30.6984 115.377 31.1909C115.377 31.6759 115.485 32.1087 115.701 32.4893C115.918 32.8698 116.216 33.1683 116.597 33.3847C116.985 33.5936 117.425 33.6981 117.917 33.6981C118.44 33.6981 118.91 33.5861 119.328 33.3623V31.0678Z" fill="white"/>
<path d="M127.66 35.1083L126.149 32.9258H124.482V35.1083H122.668V27.2735H126.06C126.754 27.2735 127.355 27.3891 127.862 27.6204C128.377 27.8517 128.772 28.1801 129.048 28.6054C129.324 29.0307 129.462 29.5344 129.462 30.1164C129.462 30.6984 129.321 31.2021 129.037 31.6274C128.761 32.0453 128.366 32.3661 127.851 32.59L129.608 35.1083H127.66ZM127.627 30.1164C127.627 29.6762 127.485 29.3404 127.202 29.1091C126.918 28.8703 126.504 28.7509 125.959 28.7509H124.482V31.4819H125.959C126.504 31.4819 126.918 31.3625 127.202 31.1237C127.485 30.885 127.627 30.5492 127.627 30.1164Z" fill="white"/>
<path d="M134.693 35.2427C133.88 35.2427 133.145 35.0673 132.488 34.7166C131.839 34.3659 131.328 33.8846 130.955 33.2727C130.589 32.6534 130.407 31.9595 130.407 31.1909C130.407 30.4223 130.589 29.7321 130.955 29.1203C131.328 28.5009 131.839 28.0159 132.488 27.6652C133.145 27.3145 133.88 27.1391 134.693 27.1391C135.507 27.1391 136.238 27.3145 136.887 27.6652C137.536 28.0159 138.047 28.5009 138.421 29.1203C138.794 29.7321 138.98 30.4223 138.98 31.1909C138.98 31.9595 138.794 32.6534 138.421 33.2727C138.047 33.8846 137.536 34.3659 136.887 34.7166C136.238 35.0673 135.507 35.2427 134.693 35.2427ZM134.693 33.6981C135.156 33.6981 135.574 33.5936 135.947 33.3847C136.32 33.1683 136.611 32.8698 136.82 32.4893C137.036 32.1087 137.145 31.6759 137.145 31.1909C137.145 30.7059 137.036 30.2731 136.82 29.8925C136.611 29.512 136.32 29.2173 135.947 29.0083C135.574 28.7919 135.156 28.6837 134.693 28.6837C134.231 28.6837 133.813 28.7919 133.44 29.0083C133.067 29.2173 132.772 29.512 132.556 29.8925C132.347 30.2731 132.242 30.7059 132.242 31.1909C132.242 31.6759 132.347 32.1087 132.556 32.4893C132.772 32.8698 133.067 33.1683 133.44 33.3847C133.813 33.5936 134.231 33.6981 134.693 33.6981Z" fill="white"/>
<path d="M143.824 35.2427C142.705 35.2427 141.832 34.933 141.205 34.3137C140.585 33.6943 140.276 32.8101 140.276 31.661V27.2735H142.089V31.5938C142.089 32.9967 142.671 33.6981 143.835 33.6981C144.402 33.6981 144.835 33.5302 145.133 33.1944C145.432 32.8512 145.581 32.3176 145.581 31.5938V27.2735H147.372V31.661C147.372 32.8101 147.059 33.6943 146.432 34.3137C145.812 34.933 144.943 35.2427 143.824 35.2427Z" fill="white"/>
<path d="M152.555 27.2735C153.249 27.2735 153.85 27.3891 154.357 27.6204C154.872 27.8517 155.267 28.1801 155.544 28.6054C155.82 29.0307 155.958 29.5344 155.958 30.1164C155.958 30.691 155.82 31.1946 155.544 31.6274C155.267 32.0527 154.872 32.3811 154.357 32.6124C153.85 32.8362 153.249 32.9482 152.555 32.9482H150.977V35.1083H149.164V27.2735H152.555ZM152.454 31.4707C152.999 31.4707 153.413 31.3551 153.697 31.1237C153.98 30.885 154.122 30.5492 154.122 30.1164C154.122 29.6762 153.98 29.3404 153.697 29.1091C153.413 28.8703 152.999 28.7509 152.454 28.7509H150.977V31.4707H152.454Z" fill="white"/>
</svg>
