<svg width="102" height="22" viewBox="0 0 102 22" fill="none" xmlns="http://www.w3.org/2000/svg">
<path d="M13.027 13.5045H14.0669C15.6618 13.5045 18.826 12.0752 18.826 6.47361C18.826 0.872011 15.8021 0.0131836 14.4146 0.0131836H0V21.6216H4.36361V9.55001L13.4353 21.612H19.1769L13.027 13.5045ZM4.35085 9.04689V4.47075H12.4816C13.4736 4.47075 13.8691 4.87132 13.8691 6.71396C13.8691 8.55659 13.2758 9.0565 12.4305 9.0565L4.35085 9.04689Z" fill="#2842B0"/>
<path d="M33.3044 12.831H25.3618V17.1604H33.2725C34.2804 17.1604 35.1863 16.7566 35.1863 14.9172C35.1991 13.3149 34.1305 12.9079 33.3044 12.831ZM34.0253 0.0126953C35.3012 0.0126953 38.038 0.704885 38.038 6.30649C38.0546 7.30911 37.9366 8.30941 37.6871 9.28033C38.9949 10.2417 40.0954 12.0555 40.0954 15.3274C40.0954 20.929 35.8147 21.6212 34.4016 21.6212H20.9121V0.0126953H34.0284H34.0253ZM32.8546 8.36703C33.3299 8.31255 33.6616 8.04657 33.6616 6.70706C33.6616 4.87724 33.2119 4.46385 32.3092 4.46385H25.3555V8.36703H32.8546Z" fill="#2842B0"/>
<path d="M53.3042 21.6213H47.2086C44.7716 21.6213 43.097 19.3332 42.5388 17.3336C42.0092 15.4364 41.853 11.9499 41.837 10.6039C41.8179 9.06895 42.0571 6.01499 42.5388 4.28772C43.097 2.28807 44.7716 0 47.2086 0H58.7811V4.47039H48.7811C47.3106 4.47039 46.4973 5.78426 46.4973 8.58506V13.0458C46.4973 15.8466 47.3075 17.1605 48.7811 17.1605H54.5036C56.5993 17.0964 57.0044 16.3273 57.0554 14.9718H53.8146V10.511H61.0203V16.3658C61.0141 17.496 60.6554 18.5958 59.9945 19.5104C59.3336 20.425 58.4038 21.1083 57.3361 21.4643C56.6663 21.7014 53.3042 21.6213 53.3042 21.6213Z" fill="#2842B0"/>
<rect x="65.8125" width="1.27791" height="21.7245" fill="#2842B0"/>
<path d="M74.3006 4.98366L73.3573 3.6212H72.3163V4.98366H71.1844V0.0927734H73.3014C73.7346 0.0927734 74.1096 0.164972 74.4263 0.30937C74.7477 0.453767 74.9946 0.658719 75.167 0.924223C75.3393 1.18973 75.4255 1.50414 75.4255 1.86747C75.4255 2.23079 75.337 2.5452 75.16 2.81071C74.9876 3.07155 74.7407 3.27185 74.4193 3.41159L75.5163 4.98366H74.3006ZM74.2796 1.86747C74.2796 1.59264 74.1911 1.38303 74.0141 1.23864C73.8371 1.08958 73.5786 1.01505 73.2386 1.01505H72.3163V2.71988H73.2386C73.5786 2.71988 73.8371 2.64535 74.0141 2.49629C74.1911 2.34724 74.2796 2.13763 74.2796 1.86747Z" fill="#2842B0"/>
<path d="M80.1092 4.07535V4.98366H76.3223V0.0927734H80.0184V1.00108H77.4472V2.0631H79.7179V2.94346H77.4472V4.07535H80.1092Z" fill="#2842B0"/>
<path d="M84.2308 3.93561H81.96L81.5268 4.98366H80.367L82.5469 0.0927734H83.6649L85.8518 4.98366H84.664L84.2308 3.93561ZM83.8745 3.07621L83.0989 1.2037L82.3234 3.07621H83.8745Z" fill="#2842B0"/>
<path d="M86.3592 0.0927734H87.4911V4.06137H89.9435V4.98366H86.3592V0.0927734Z" fill="#2842B0"/>
<path d="M91.1319 1.01505H89.5668V0.0927734H93.8289V1.01505H92.2638V4.98366H91.1319V1.01505Z" fill="#2842B0"/>
<path d="M96.6968 3.25089V4.98366H95.5649V3.23691L93.6715 0.0927734H94.8732L96.1798 2.26572L97.4864 0.0927734H98.5973L96.6968 3.25089Z" fill="#2842B0"/>
<path d="M74.7757 10.7468C75.0552 10.8353 75.2741 10.9844 75.4325 11.194C75.5908 11.3989 75.67 11.6528 75.67 11.9556C75.67 12.3841 75.5023 12.7148 75.167 12.9477C74.8362 13.176 74.3518 13.2901 73.7137 13.2901H71.1844V8.39919H73.5739C74.1701 8.39919 74.6266 8.51331 74.9434 8.74155C75.2648 8.96979 75.4255 9.27955 75.4255 9.67082C75.4255 9.90838 75.3672 10.1203 75.2508 10.3066C75.139 10.493 74.9806 10.6397 74.7757 10.7468ZM72.3093 9.2516V10.4045H73.4342C73.7137 10.4045 73.9256 10.3555 74.07 10.2577C74.2144 10.1599 74.2866 10.0155 74.2866 9.82453C74.2866 9.63356 74.2144 9.49149 74.07 9.39833C73.9256 9.30051 73.7137 9.2516 73.4342 9.2516H72.3093ZM73.6298 12.4377C73.9279 12.4377 74.1515 12.3888 74.3006 12.2909C74.4543 12.1931 74.5311 12.0417 74.5311 11.8368C74.5311 11.4315 74.2307 11.2289 73.6298 11.2289H72.3093V12.4377H73.6298Z" fill="#2842B0"/>
<path d="M79.6431 13.2901L78.6999 11.9276H77.6588V13.2901H76.527V8.39919H78.644C79.0772 8.39919 79.4522 8.47139 79.7689 8.61579C80.0903 8.76018 80.3372 8.96513 80.5095 9.23064C80.6819 9.49614 80.7681 9.81056 80.7681 10.1739C80.7681 10.5372 80.6796 10.8516 80.5025 11.1171C80.3302 11.378 80.0833 11.5783 79.7619 11.718L80.8589 13.2901H79.6431ZM79.6222 10.1739C79.6222 9.89906 79.5337 9.68945 79.3567 9.54505C79.1797 9.396 78.9212 9.32147 78.5811 9.32147H77.6588V11.0263H78.5811C78.9212 11.0263 79.1797 10.9518 79.3567 10.8027C79.5337 10.6537 79.6222 10.444 79.6222 10.1739Z" fill="#2842B0"/>
<path d="M84.0334 13.3739C83.5257 13.3739 83.0669 13.2645 82.657 13.0455C82.2517 12.8266 81.9327 12.5262 81.6998 12.1442C81.4715 11.7576 81.3574 11.3244 81.3574 10.8446C81.3574 10.3649 81.4715 9.934 81.6998 9.55204C81.9327 9.16543 82.2517 8.86266 82.657 8.64373C83.0669 8.42481 83.5257 8.31535 84.0334 8.31535C84.5411 8.31535 84.9976 8.42481 85.4029 8.64373C85.8081 8.86266 86.1272 9.16543 86.3601 9.55204C86.593 9.934 86.7094 10.3649 86.7094 10.8446C86.7094 11.3244 86.593 11.7576 86.3601 12.1442C86.1272 12.5262 85.8081 12.8266 85.4029 13.0455C84.9976 13.2645 84.5411 13.3739 84.0334 13.3739ZM84.0334 12.4097C84.3222 12.4097 84.5831 12.3445 84.816 12.2141C85.0489 12.079 85.2305 11.8927 85.361 11.6551C85.496 11.4176 85.5636 11.1474 85.5636 10.8446C85.5636 10.5419 85.496 10.2717 85.361 10.0341C85.2305 9.79658 85.0489 9.61259 84.816 9.48217C84.5831 9.34709 84.3222 9.27955 84.0334 9.27955C83.7446 9.27955 83.4838 9.34709 83.2509 9.48217C83.018 9.61259 82.834 9.79658 82.6989 10.0341C82.5685 10.2717 82.5033 10.5419 82.5033 10.8446C82.5033 11.1474 82.5685 11.4176 82.6989 11.6551C82.834 11.8927 83.018 12.079 83.2509 12.2141C83.4838 12.3445 83.7446 12.4097 84.0334 12.4097Z" fill="#2842B0"/>
<path d="M89.3418 11.3687L88.685 12.0534V13.2901H87.5601V8.39919H88.685V10.6839L90.851 8.39919H92.1086L90.0824 10.5791L92.2274 13.2901H90.9069L89.3418 11.3687Z" fill="#2842B0"/>
<path d="M96.519 12.3818V13.2901H92.7321V8.39919H96.4282V9.3075H93.857V10.3695H96.1278V11.2499H93.857V12.3818H96.519Z" fill="#2842B0"/>
<path d="M100.536 13.2901L99.5926 11.9276H98.5515V13.2901H97.4196V8.39919H99.5367C99.9699 8.39919 100.345 8.47139 100.662 8.61579C100.983 8.76018 101.23 8.96513 101.402 9.23064C101.575 9.49614 101.661 9.81056 101.661 10.1739C101.661 10.5372 101.572 10.8516 101.395 11.1171C101.223 11.378 100.976 11.5783 100.655 11.718L101.752 13.2901H100.536ZM100.515 10.1739C100.515 9.89906 100.426 9.68945 100.249 9.54505C100.072 9.396 99.8139 9.32147 99.4738 9.32147H98.5515V11.0263H99.4738C99.8139 11.0263 100.072 10.9518 100.249 10.8027C100.426 10.6537 100.515 10.444 100.515 10.1739Z" fill="#2842B0"/>
<path d="M74.4892 19.3937H75.5233V21.378C75.2578 21.5783 74.9504 21.732 74.601 21.8391C74.2517 21.9462 73.9 21.9998 73.546 21.9998C73.0383 21.9998 72.5818 21.8927 72.1765 21.6784C71.7713 21.4595 71.4522 21.159 71.2193 20.7771C70.9911 20.3905 70.877 19.955 70.877 19.4705C70.877 18.9861 70.9911 18.5529 71.2193 18.1709C71.4522 17.7843 71.7736 17.4839 72.1835 17.2696C72.5934 17.0507 73.0546 16.9412 73.5669 16.9412C73.9955 16.9412 74.3844 17.0134 74.7338 17.1578C75.0831 17.3022 75.3766 17.5118 75.6141 17.7867L74.8875 18.4574C74.5381 18.0894 74.1166 17.9054 73.6228 17.9054C73.3107 17.9054 73.0336 17.9707 72.7914 18.1011C72.5492 18.2315 72.3605 18.4155 72.2254 18.653C72.0904 18.8906 72.0228 19.1631 72.0228 19.4705C72.0228 19.7733 72.0904 20.0435 72.2254 20.281C72.3605 20.5186 72.5468 20.7049 72.7844 20.84C73.0266 20.9704 73.3014 21.0356 73.6089 21.0356C73.9349 21.0356 74.2284 20.9657 74.4892 20.826V19.3937Z" fill="#2842B0"/>
<path d="M79.6909 21.916L78.7477 20.5535H77.7066V21.916H76.5747V17.0251H78.6918C79.125 17.0251 79.4999 17.0973 79.8167 17.2417C80.1381 17.3861 80.385 17.591 80.5573 17.8565C80.7296 18.122 80.8158 18.4365 80.8158 18.7998C80.8158 19.1631 80.7273 19.4775 80.5503 19.743C80.378 20.0039 80.1311 20.2042 79.8097 20.3439L80.9066 21.916H79.6909ZM79.67 18.7998C79.67 18.525 79.5814 18.3153 79.4044 18.1709C79.2274 18.0219 78.9689 17.9474 78.6289 17.9474H77.7066V19.6522H78.6289C78.9689 19.6522 79.2274 19.5777 79.4044 19.4286C79.5814 19.2795 79.67 19.0699 79.67 18.7998Z" fill="#2842B0"/>
<path d="M84.0812 21.9998C83.5735 21.9998 83.1147 21.8903 82.7048 21.6714C82.2995 21.4525 81.9804 21.1521 81.7475 20.7701C81.5193 20.3835 81.4052 19.9503 81.4052 19.4705C81.4052 18.9908 81.5193 18.5599 81.7475 18.1779C81.9804 17.7913 82.2995 17.4886 82.7048 17.2696C83.1147 17.0507 83.5735 16.9412 84.0812 16.9412C84.5889 16.9412 85.0454 17.0507 85.4506 17.2696C85.8559 17.4886 86.175 17.7913 86.4079 18.1779C86.6407 18.5599 86.7572 18.9908 86.7572 19.4705C86.7572 19.9503 86.6407 20.3835 86.4079 20.7701C86.175 21.1521 85.8559 21.4525 85.4506 21.6714C85.0454 21.8903 84.5889 21.9998 84.0812 21.9998ZM84.0812 21.0356C84.37 21.0356 84.6308 20.9704 84.8637 20.84C85.0966 20.7049 85.2783 20.5186 85.4087 20.281C85.5438 20.0435 85.6113 19.7733 85.6113 19.4705C85.6113 19.1678 85.5438 18.8976 85.4087 18.66C85.2783 18.4225 85.0966 18.2385 84.8637 18.1081C84.6308 17.973 84.37 17.9054 84.0812 17.9054C83.7924 17.9054 83.5315 17.973 83.2986 18.1081C83.0657 18.2385 82.8818 18.4225 82.7467 18.66C82.6163 18.8976 82.551 19.1678 82.551 19.4705C82.551 19.7733 82.6163 20.0435 82.7467 20.281C82.8818 20.5186 83.0657 20.7049 83.2986 20.84C83.5315 20.9704 83.7924 21.0356 84.0812 21.0356Z" fill="#2842B0"/>
<path d="M89.7808 21.9998C89.0821 21.9998 88.5371 21.8065 88.1459 21.4199C87.7592 21.0333 87.5659 20.4813 87.5659 19.764V17.0251H88.6978V19.7221C88.6978 20.5978 89.0612 21.0356 89.7878 21.0356C90.1418 21.0356 90.412 20.9308 90.5983 20.7212C90.7846 20.5069 90.8778 20.1739 90.8778 19.7221V17.0251H91.9957V19.764C91.9957 20.4813 91.8 21.0333 91.4088 21.4199C91.0222 21.8065 90.4795 21.9998 89.7808 21.9998Z" fill="#2842B0"/>
<path d="M95.2313 17.0251C95.6644 17.0251 96.0394 17.0973 96.3562 17.2417C96.6776 17.3861 96.9244 17.591 97.0968 17.8565C97.2691 18.122 97.3553 18.4365 97.3553 18.7998C97.3553 19.1584 97.2691 19.4729 97.0968 19.743C96.9244 20.0085 96.6776 20.2135 96.3562 20.3579C96.0394 20.4976 95.6644 20.5675 95.2313 20.5675H94.2461V21.916H93.1142V17.0251H95.2313ZM95.1684 19.6452C95.5084 19.6452 95.7669 19.573 95.9439 19.4286C96.1209 19.2795 96.2094 19.0699 96.2094 18.7998C96.2094 18.525 96.1209 18.3153 95.9439 18.1709C95.7669 18.0219 95.5084 17.9474 95.1684 17.9474H94.2461V19.6452H95.1684Z" fill="#2842B0"/>
</svg>
