<svg width="14" height="14" viewBox="0 0 14 14" fill="none" xmlns="http://www.w3.org/2000/svg">
<path d="M2.03226 2.06048C3.40591 0.686828 5.06183 0 7 0C8.93817 0 10.5847 0.686828 11.9395 2.06048C13.3132 3.41532 14 5.06183 14 7C14 8.93817 13.3132 10.5941 11.9395 11.9677C10.5847 13.3226 8.93817 14 7 14C5.06183 14 3.40591 13.3226 2.03226 11.9677C0.677419 10.5941 0 8.93817 0 7C0 5.06183 0.677419 3.41532 2.03226 2.06048ZM2.99194 11.0081C4.10215 12.0995 5.43817 12.6452 7 12.6452C8.56183 12.6452 9.88844 12.0995 10.9798 11.0081C12.0901 9.89785 12.6452 8.56183 12.6452 7C12.6452 5.43817 12.0901 4.11156 10.9798 3.02016C9.88844 1.90995 8.56183 1.35484 7 1.35484C5.43817 1.35484 4.10215 1.90995 2.99194 3.02016C1.90054 4.11156 1.35484 5.43817 1.35484 7C1.35484 8.56183 1.90054 9.89785 2.99194 11.0081ZM8.75 9.70968L6.35081 7.95968C6.25672 7.88441 6.20968 7.79032 6.20968 7.67742V3.04839C6.20968 2.82258 6.32258 2.70968 6.54839 2.70968H7.45161C7.67742 2.70968 7.79032 2.82258 7.79032 3.04839V7.05645L9.68145 8.41129C9.85081 8.54301 9.86962 8.70296 9.7379 8.89113L9.22984 9.625C9.09812 9.81317 8.93817 9.8414 8.75 9.70968Z" fill="white"/>
</svg>
